<svg width="169" height="169" viewBox="0 0 169 169" fill="none" xmlns="http://www.w3.org/2000/svg">
<g clip-path="url(#clip0_20_2)">
<path d="M105.816 103.007H111.943V93.6993C103.284 92.9745 95.159 89.2055 89.0145 83.061C82.8685 76.9165 79.0998 68.7932 78.3733 60.134L78.372 60.1203H69.0563V66.247C69.0672 75.9936 72.9441 85.3366 79.8353 92.2279C86.7266 99.1191 96.0696 102.996 105.816 103.007L105.816 103.007Z" fill="#FF3000"/>
<path d="M115.006 87.6904C115.069 87.6904 115.131 87.6959 115.192 87.7L121.133 87.6931V78.3487C114.105 77.6321 107.541 74.5128 102.546 69.5169C97.5506 64.5224 94.4313 57.9582 93.7146 50.9304H84.3727V57.057C84.3823 65.1789 87.6124 72.9646 93.3547 78.7083C99.0984 84.4505 106.884 87.6809 115.006 87.6903L115.006 87.6904Z" fill="#FF3000"/>
<path d="M119.75 44.2856C124.147 47.2108 127.918 50.9812 130.844 55.3794C132.081 57.2352 133.5 58.9651 135.076 60.5419L139.514 64.9797L165.815 38.6788L161.052 33.9158C157.76 30.6213 153.957 27.8808 149.79 25.7978C145.522 23.6781 142.278 19.9393 140.783 15.414C140.201 13.6717 139.222 12.0881 137.925 10.7889L133.388 6.25128L116.277 23.3622L123.3 30.3858L118.968 34.7182L111.944 27.6946L107.087 32.5522L114.588 40.0533C116.165 41.6301 117.895 43.0482 119.75 44.2859L119.75 44.2856ZM138.617 27.3224L147.807 36.5124L143.475 40.8449L134.285 31.6549L138.617 27.3224ZM135.554 42.6391L141.68 48.7658L137.348 53.0982L131.221 46.9715L135.554 42.6391Z" fill="#FF3000"/>
<path d="M76.4153 97.4405C74.7455 95.8651 73.2029 94.1583 71.8025 92.3368L62.9132 101.226L70.8628 102.993L76.4153 97.4405Z" fill="#FF3000"/>
<path d="M107.798 66.0614L120.866 52.9931H120.865C119.466 51.6625 117.956 50.4549 116.35 49.3815C116.034 49.1709 115.727 48.9453 115.416 48.7251L103.374 60.7691C104.594 62.7315 106.083 64.5133 107.798 66.0614H107.798Z" fill="#FF3000"/>
<path d="M152.529 20.3163C152.754 20.4285 152.971 20.5502 153.193 20.6651L167.381 6.47676L169 0L162.523 1.61919L147.923 16.2206C149.067 17.9711 150.657 19.3851 152.529 20.3164L152.529 20.3163Z" fill="#FF3000"/>
<path d="M37.7473 136.108L34.9137 129.227L-0.134277 164.275L4.72329 169.133L37.7473 136.108Z" fill="#FF3000"/>
<path d="M80.8266 111.483L30.2098 100.235L29.7791 100.665L49.3613 148.215C65.5969 142.38 77.5548 128.42 80.8274 111.48L80.8266 111.483ZM58.9673 113.094L65.094 119.22L60.7616 123.553L54.6349 117.426L58.9673 113.094ZM55.904 125.347L62.0307 131.474L57.6983 135.806L51.5716 129.68L55.904 125.347Z" fill="#FF3000"/>
</g>
<defs>
<clipPath id="clip0_20_2">
<rect width="169" height="169" fill="white"/>
</clipPath>
</defs>
</svg>
